<svg width="26" height="26" viewBox="0 0 26 26" fill="none" xmlns="http://www.w3.org/2000/svg">
<rect width="26" height="26" rx="13" fill="#2E7D32"/>
<path d="M11.7354 12.4014H12.6377C13.0798 12.4014 13.4443 12.3285 13.7314 12.1826C14.0231 12.0322 14.2396 11.8294 14.3809 11.5742C14.5267 11.3145 14.5996 11.0228 14.5996 10.6992C14.5996 10.3164 14.5358 9.99512 14.4082 9.73535C14.2806 9.47559 14.0892 9.27962 13.834 9.14746C13.5788 9.0153 13.2552 8.94922 12.8633 8.94922C12.5078 8.94922 12.1934 9.01986 11.9199 9.16113C11.651 9.29785 11.4391 9.49382 11.2842 9.74902C11.1338 10.0042 11.0586 10.305 11.0586 10.6514H9.79395C9.79395 10.1455 9.92155 9.68522 10.1768 9.27051C10.432 8.85579 10.7897 8.52539 11.25 8.2793C11.7148 8.0332 12.2526 7.91016 12.8633 7.91016C13.4648 7.91016 13.9912 8.01725 14.4424 8.23145C14.8936 8.44108 15.2445 8.75553 15.4951 9.1748C15.7458 9.58952 15.8711 10.1068 15.8711 10.7266C15.8711 10.9772 15.8118 11.2461 15.6934 11.5332C15.5794 11.8158 15.3994 12.0801 15.1533 12.3262C14.9118 12.5723 14.5973 12.7751 14.21 12.9346C13.8226 13.0895 13.3577 13.167 12.8154 13.167H11.7354V12.4014ZM11.7354 13.4404V12.6816H12.8154C13.4489 12.6816 13.973 12.7568 14.3877 12.9072C14.8024 13.0576 15.1283 13.2581 15.3652 13.5088C15.6068 13.7594 15.7754 14.0352 15.8711 14.3359C15.9714 14.6322 16.0215 14.9284 16.0215 15.2246C16.0215 15.6895 15.9417 16.1019 15.7822 16.4619C15.6273 16.8219 15.4062 17.1273 15.1191 17.3779C14.8366 17.6286 14.5039 17.8177 14.1211 17.9453C13.7383 18.0729 13.3213 18.1367 12.8701 18.1367C12.4372 18.1367 12.0293 18.0752 11.6465 17.9521C11.2682 17.8291 10.9333 17.6514 10.6416 17.4189C10.3499 17.182 10.1221 16.8926 9.95801 16.5508C9.79395 16.2044 9.71191 15.8102 9.71191 15.3682H10.9766C10.9766 15.7145 11.0518 16.0176 11.2021 16.2773C11.3571 16.5371 11.5758 16.7399 11.8584 16.8857C12.1455 17.027 12.4827 17.0977 12.8701 17.0977C13.2575 17.0977 13.5902 17.0316 13.8682 16.8994C14.1507 16.7627 14.3672 16.5576 14.5176 16.2842C14.6725 16.0107 14.75 15.6667 14.75 15.252C14.75 14.8372 14.6634 14.4977 14.4902 14.2334C14.3171 13.9645 14.071 13.7663 13.752 13.6387C13.4375 13.5065 13.0661 13.4404 12.6377 13.4404H11.7354Z" fill="white"/>
</svg>
