<svg width="240" height="26" viewBox="0 0 240 26" fill="none" xmlns="http://www.w3.org/2000/svg">
<line x1="2" y1="5" x2="2" y2="21" stroke="url(#paint0_linear_62_43)" stroke-width="4" stroke-linecap="round"/>
<line x1="12" y1="7" x2="12" y2="19" stroke="url(#paint1_linear_62_43)" stroke-width="4" stroke-linecap="round"/>
<line x1="22" y1="9" x2="22" y2="17" stroke="url(#paint2_linear_62_43)" stroke-width="4" stroke-linecap="round"/>
<path d="M37.2295 5.35938V21H35.9189V5.35938H37.2295ZM42.5898 5.35938V6.49805H30.5693V5.35938H42.5898ZM50.6787 18.916V12.9219C50.6787 12.3704 50.5641 11.8942 50.335 11.4932C50.1058 11.0921 49.7692 10.7842 49.3252 10.5693C48.8812 10.3545 48.3333 10.2471 47.6816 10.2471C47.0801 10.2471 46.543 10.3545 46.0703 10.5693C45.6048 10.777 45.236 11.0599 44.9639 11.418C44.6989 11.7689 44.5664 12.1592 44.5664 12.5889L43.2773 12.5781C43.2773 12.1413 43.3848 11.7188 43.5996 11.3105C43.8145 10.9023 44.1188 10.5371 44.5127 10.2148C44.9066 9.89258 45.3757 9.63835 45.9199 9.45215C46.4714 9.25879 47.0765 9.16211 47.7354 9.16211C48.5661 9.16211 49.2965 9.30176 49.9268 9.58105C50.5641 9.86035 51.0618 10.2793 51.4199 10.8379C51.778 11.3965 51.957 12.0983 51.957 12.9434V18.5615C51.957 18.9626 51.9857 19.3779 52.043 19.8076C52.1074 20.2373 52.1969 20.5918 52.3115 20.8711V21H50.9473C50.8613 20.7422 50.7933 20.4199 50.7432 20.0332C50.7002 19.6393 50.6787 19.2669 50.6787 18.916ZM50.9795 14.2324L51.001 15.2207H48.4766C47.8177 15.2207 47.2269 15.2816 46.7041 15.4033C46.1885 15.5179 45.7516 15.6898 45.3936 15.9189C45.0355 16.141 44.7598 16.4095 44.5664 16.7246C44.3802 17.0397 44.2871 17.3978 44.2871 17.7988C44.2871 18.2142 44.391 18.5938 44.5986 18.9375C44.8135 19.2812 45.1143 19.557 45.501 19.7646C45.8949 19.9652 46.3604 20.0654 46.8975 20.0654C47.6136 20.0654 48.2438 19.9329 48.7881 19.668C49.3395 19.403 49.7943 19.0557 50.1523 18.626C50.5104 18.1963 50.7503 17.7272 50.8721 17.2188L51.4307 17.96C51.3376 18.318 51.1657 18.6868 50.915 19.0664C50.6715 19.4388 50.3529 19.7897 49.959 20.1191C49.5651 20.4414 49.0996 20.7064 48.5625 20.9141C48.0326 21.1146 47.431 21.2148 46.7578 21.2148C45.9987 21.2148 45.3363 21.0716 44.7705 20.7852C44.2119 20.4987 43.7751 20.1084 43.46 19.6143C43.152 19.113 42.998 18.5472 42.998 17.917C42.998 17.3441 43.1198 16.832 43.3633 16.3809C43.6068 15.9225 43.9577 15.5358 44.416 15.2207C44.8815 14.8984 45.4401 14.6549 46.0918 14.4902C46.7507 14.3184 47.4883 14.2324 48.3047 14.2324H50.9795ZM62.8496 18.3145V9.37695H64.1387V21H62.9033L62.8496 18.3145ZM63.0859 16.166L63.752 16.1445C63.752 16.875 63.666 17.5482 63.4941 18.1641C63.3223 18.7799 63.0537 19.3171 62.6885 19.7754C62.3232 20.2337 61.8506 20.5882 61.2705 20.8389C60.6904 21.0895 59.9922 21.2148 59.1758 21.2148C58.61 21.2148 58.0908 21.1361 57.6182 20.9785C57.1527 20.8138 56.7516 20.556 56.415 20.2051C56.0785 19.8542 55.8171 19.3994 55.6309 18.8408C55.4518 18.2822 55.3623 17.6055 55.3623 16.8105V9.37695H56.6406V16.832C56.6406 17.4551 56.7087 17.9743 56.8447 18.3896C56.988 18.805 57.1813 19.138 57.4248 19.3887C57.6755 19.6393 57.9619 19.8184 58.2842 19.9258C58.6064 20.0332 58.9538 20.0869 59.3262 20.0869C60.2715 20.0869 61.0163 19.9043 61.5605 19.5391C62.112 19.1738 62.5023 18.694 62.7314 18.0996C62.9678 17.498 63.0859 16.8535 63.0859 16.166ZM74.4619 18.0352C74.4619 17.7201 74.3831 17.4085 74.2256 17.1006C74.068 16.7926 73.7637 16.5098 73.3125 16.252C72.8685 15.9941 72.2132 15.7757 71.3467 15.5967C70.7021 15.4535 70.1257 15.2923 69.6172 15.1133C69.1159 14.9342 68.6934 14.7194 68.3496 14.4688C68.0059 14.2181 67.7445 13.9173 67.5654 13.5664C67.3864 13.2155 67.2969 12.8001 67.2969 12.3203C67.2969 11.8906 67.39 11.486 67.5762 11.1064C67.7695 10.7197 68.0417 10.3831 68.3926 10.0967C68.7507 9.80306 69.1803 9.57389 69.6816 9.40918C70.1901 9.24447 70.7594 9.16211 71.3896 9.16211C72.2848 9.16211 73.0511 9.31608 73.6885 9.62402C74.333 9.9248 74.8236 10.3366 75.1602 10.8594C75.5039 11.3822 75.6758 11.973 75.6758 12.6318H74.3975C74.3975 12.2308 74.2793 11.8512 74.043 11.4932C73.8138 11.1351 73.4736 10.8415 73.0225 10.6123C72.5785 10.3831 72.0342 10.2686 71.3896 10.2686C70.7236 10.2686 70.1829 10.3688 69.7676 10.5693C69.3522 10.7699 69.0479 11.0241 68.8545 11.332C68.6683 11.64 68.5752 11.9587 68.5752 12.2881C68.5752 12.5459 68.6146 12.7822 68.6934 12.9971C68.7793 13.2048 68.9297 13.3981 69.1445 13.5771C69.3665 13.7562 69.6816 13.9245 70.0898 14.082C70.498 14.2396 71.028 14.3936 71.6797 14.5439C72.6178 14.7516 73.3841 15.0059 73.9785 15.3066C74.5801 15.6003 75.0241 15.9655 75.3105 16.4023C75.597 16.832 75.7402 17.3548 75.7402 17.9707C75.7402 18.4505 75.64 18.891 75.4395 19.292C75.2389 19.6859 74.9489 20.026 74.5693 20.3125C74.1969 20.599 73.7458 20.821 73.2158 20.9785C72.693 21.1361 72.1058 21.2148 71.4541 21.2148C70.473 21.2148 69.6423 21.0537 68.9619 20.7314C68.2887 20.402 67.7767 19.9723 67.4258 19.4424C67.082 18.9053 66.9102 18.3359 66.9102 17.7344H68.1885C68.2314 18.3359 68.4212 18.8122 68.7578 19.1631C69.0944 19.5068 69.5062 19.7503 69.9932 19.8936C70.4873 20.0368 70.9743 20.1084 71.4541 20.1084C72.113 20.1084 72.6644 20.0117 73.1084 19.8184C73.5524 19.625 73.889 19.3708 74.1182 19.0557C74.3473 18.7406 74.4619 18.4004 74.4619 18.0352ZM82.9375 20.1084C83.4818 20.1084 83.9902 20.0081 84.4629 19.8076C84.9427 19.5999 85.3366 19.2956 85.6445 18.8945C85.9596 18.4863 86.1387 17.9886 86.1816 17.4014H87.4062C87.3704 18.139 87.1449 18.7979 86.7295 19.3779C86.3213 19.9508 85.7842 20.402 85.1182 20.7314C84.4593 21.0537 83.7324 21.2148 82.9375 21.2148C82.1283 21.2148 81.4121 21.068 80.7891 20.7744C80.1732 20.4808 79.6576 20.0726 79.2422 19.5498C78.8268 19.0199 78.5117 18.404 78.2969 17.7021C78.0892 16.9932 77.9854 16.2305 77.9854 15.4141V14.9629C77.9854 14.1465 78.0892 13.3874 78.2969 12.6855C78.5117 11.9766 78.8268 11.3607 79.2422 10.8379C79.6576 10.3079 80.1732 9.89616 80.7891 9.60254C81.4049 9.30892 82.1175 9.16211 82.9268 9.16211C83.7575 9.16211 84.5023 9.3304 85.1611 9.66699C85.8271 10.0036 86.3571 10.4798 86.751 11.0957C87.152 11.7116 87.3704 12.4421 87.4062 13.2871H86.1816C86.1458 12.6641 85.9811 12.127 85.6875 11.6758C85.3939 11.2246 85.0072 10.8773 84.5273 10.6338C84.0475 10.3903 83.514 10.2686 82.9268 10.2686C82.2679 10.2686 81.7057 10.3975 81.2402 10.6553C80.7747 10.9059 80.3952 11.2533 80.1016 11.6973C79.8151 12.1341 79.6038 12.6354 79.4678 13.2012C79.3317 13.7598 79.2637 14.347 79.2637 14.9629V15.4141C79.2637 16.0371 79.3281 16.6315 79.457 17.1973C79.5931 17.7559 79.8044 18.2536 80.0908 18.6904C80.3844 19.1273 80.764 19.4746 81.2295 19.7324C81.7021 19.9831 82.2715 20.1084 82.9375 20.1084ZM91.2734 4.5V21H89.9951V4.5H91.2734ZM90.9834 14.4688L90.4141 14.1465C90.457 13.459 90.5967 12.8145 90.833 12.2129C91.0693 11.6113 91.388 11.0814 91.7891 10.623C92.1973 10.1647 92.6735 9.80664 93.2178 9.54883C93.7692 9.29102 94.3779 9.16211 95.0439 9.16211C95.624 9.16211 96.1432 9.24089 96.6016 9.39844C97.0599 9.55599 97.4502 9.80664 97.7725 10.1504C98.0947 10.4941 98.3382 10.9346 98.5029 11.4717C98.6748 12.0088 98.7607 12.6641 98.7607 13.4375V21H97.4717V13.4268C97.4717 12.6247 97.3607 11.998 97.1387 11.5469C96.9167 11.0885 96.6016 10.7627 96.1934 10.5693C95.7852 10.376 95.3018 10.2793 94.7432 10.2793C94.1273 10.2793 93.5866 10.4154 93.1211 10.6875C92.6628 10.9525 92.276 11.2998 91.9609 11.7295C91.653 12.152 91.4167 12.6068 91.252 13.0938C91.0872 13.5736 90.9977 14.0319 90.9834 14.4688ZM106.463 9.37695V10.4297H100.641V9.37695H106.463ZM102.778 6.39062H104.057V18.1748C104.057 18.7119 104.128 19.1165 104.271 19.3887C104.415 19.6608 104.601 19.8434 104.83 19.9365C105.059 20.0296 105.306 20.0762 105.571 20.0762C105.765 20.0762 105.951 20.0654 106.13 20.0439C106.309 20.0153 106.47 19.9867 106.613 19.958L106.667 21.043C106.509 21.0931 106.305 21.1325 106.055 21.1611C105.804 21.1969 105.553 21.2148 105.303 21.2148C104.809 21.2148 104.372 21.1253 103.992 20.9463C103.613 20.7601 103.315 20.445 103.101 20.001C102.886 19.5498 102.778 18.9375 102.778 18.1641V6.39062ZM110.588 9.37695V21H109.31V9.37695H110.588ZM109.084 6.01465C109.084 5.77116 109.159 5.56706 109.31 5.40234C109.467 5.23047 109.682 5.14453 109.954 5.14453C110.226 5.14453 110.441 5.23047 110.599 5.40234C110.763 5.56706 110.846 5.77116 110.846 6.01465C110.846 6.25098 110.763 6.45508 110.599 6.62695C110.441 6.79167 110.226 6.87402 109.954 6.87402C109.682 6.87402 109.467 6.79167 109.31 6.62695C109.159 6.45508 109.084 6.25098 109.084 6.01465ZM118.387 20.1084C118.931 20.1084 119.439 20.0081 119.912 19.8076C120.392 19.5999 120.786 19.2956 121.094 18.8945C121.409 18.4863 121.588 17.9886 121.631 17.4014H122.855C122.82 18.139 122.594 18.7979 122.179 19.3779C121.771 19.9508 121.233 20.402 120.567 20.7314C119.909 21.0537 119.182 21.2148 118.387 21.2148C117.577 21.2148 116.861 21.068 116.238 20.7744C115.622 20.4808 115.107 20.0726 114.691 19.5498C114.276 19.0199 113.961 18.404 113.746 17.7021C113.538 16.9932 113.435 16.2305 113.435 15.4141V14.9629C113.435 14.1465 113.538 13.3874 113.746 12.6855C113.961 11.9766 114.276 11.3607 114.691 10.8379C115.107 10.3079 115.622 9.89616 116.238 9.60254C116.854 9.30892 117.567 9.16211 118.376 9.16211C119.207 9.16211 119.951 9.3304 120.61 9.66699C121.276 10.0036 121.806 10.4798 122.2 11.0957C122.601 11.7116 122.82 12.4421 122.855 13.2871H121.631C121.595 12.6641 121.43 12.127 121.137 11.6758C120.843 11.2246 120.456 10.8773 119.977 10.6338C119.497 10.3903 118.963 10.2686 118.376 10.2686C117.717 10.2686 117.155 10.3975 116.689 10.6553C116.224 10.9059 115.844 11.2533 115.551 11.6973C115.264 12.1341 115.053 12.6354 114.917 13.2012C114.781 13.7598 114.713 14.347 114.713 14.9629V15.4141C114.713 16.0371 114.777 16.6315 114.906 17.1973C115.042 17.7559 115.254 18.2536 115.54 18.6904C115.834 19.1273 116.213 19.4746 116.679 19.7324C117.151 19.9831 117.721 20.1084 118.387 20.1084ZM126.723 4.5V21H125.444V4.5H126.723ZM134.017 9.37695L128.581 14.7695L126.271 17.0039L126.078 15.7471L127.937 13.7383L132.395 9.37695H134.017ZM132.899 21L128.044 14.9629L128.753 13.8564L134.446 21H132.899ZM140.505 21.2148C139.746 21.2148 139.048 21.0752 138.41 20.7959C137.78 20.5166 137.229 20.1227 136.756 19.6143C136.29 19.1058 135.929 18.5042 135.671 17.8096C135.42 17.1077 135.295 16.3415 135.295 15.5107V15.0488C135.295 14.1536 135.427 13.3444 135.692 12.6211C135.957 11.8978 136.323 11.2783 136.788 10.7627C137.254 10.2471 137.784 9.85319 138.378 9.58105C138.979 9.30176 139.61 9.16211 140.269 9.16211C141.006 9.16211 141.661 9.2946 142.234 9.55957C142.807 9.81738 143.287 10.1862 143.674 10.666C144.068 11.1387 144.365 11.7008 144.565 12.3525C144.766 12.9971 144.866 13.7096 144.866 14.4902V15.2744H136.068V14.1787H143.588V14.0283C143.574 13.3766 143.441 12.7679 143.19 12.2021C142.947 11.6292 142.582 11.1637 142.095 10.8057C141.608 10.4476 140.999 10.2686 140.269 10.2686C139.724 10.2686 139.223 10.3831 138.765 10.6123C138.313 10.8415 137.923 11.1709 137.594 11.6006C137.271 12.0231 137.021 12.528 136.842 13.1152C136.67 13.6953 136.584 14.3398 136.584 15.0488V15.5107C136.584 16.1553 136.677 16.7568 136.863 17.3154C137.057 17.8669 137.329 18.3538 137.68 18.7764C138.038 19.1989 138.46 19.5283 138.947 19.7646C139.434 20.001 139.971 20.1191 140.559 20.1191C141.246 20.1191 141.855 19.9938 142.385 19.7432C142.915 19.4854 143.391 19.0807 143.813 18.5293L144.619 19.1523C144.368 19.5247 144.053 19.8685 143.674 20.1836C143.301 20.4987 142.854 20.7493 142.331 20.9355C141.808 21.1217 141.2 21.2148 140.505 21.2148ZM151.795 9.37695V10.4297H145.973V9.37695H151.795ZM148.11 6.39062H149.389V18.1748C149.389 18.7119 149.46 19.1165 149.604 19.3887C149.747 19.6608 149.933 19.8434 150.162 19.9365C150.391 20.0296 150.638 20.0762 150.903 20.0762C151.097 20.0762 151.283 20.0654 151.462 20.0439C151.641 20.0153 151.802 19.9867 151.945 19.958L151.999 21.043C151.841 21.0931 151.637 21.1325 151.387 21.1611C151.136 21.1969 150.885 21.2148 150.635 21.2148C150.141 21.2148 149.704 21.1253 149.324 20.9463C148.945 20.7601 148.647 20.445 148.433 20.001C148.218 19.5498 148.11 18.9375 148.11 18.1641V6.39062ZM169.885 19.8721V21H161.087V19.8721H169.885ZM161.484 5.35938V21H160.163V5.35938H161.484ZM168.789 12.374V13.502H161.087V12.374H168.789ZM169.831 5.35938V6.49805H161.087V5.35938H169.831ZM172.893 9.37695L176.029 14.0713L179.177 9.37695H180.702L176.76 15.0703L180.863 21H179.359L176.04 16.0908L172.731 21H171.228L175.331 15.0703L171.389 9.37695H172.893ZM184.376 11.6113V25.4688H183.087V9.37695H184.29L184.376 11.6113ZM192.454 15.0811V15.3066C192.454 16.1732 192.354 16.9681 192.153 17.6914C191.953 18.4147 191.663 19.0413 191.283 19.5713C190.911 20.0941 190.449 20.4987 189.897 20.7852C189.346 21.0716 188.719 21.2148 188.018 21.2148C187.323 21.2148 186.703 21.1074 186.159 20.8926C185.615 20.6777 185.146 20.3734 184.752 19.9795C184.365 19.5785 184.054 19.113 183.817 18.583C183.588 18.0459 183.427 17.4587 183.334 16.8213V13.8457C183.441 13.1439 183.617 12.5065 183.86 11.9336C184.104 11.3607 184.415 10.8665 184.795 10.4512C185.182 10.0358 185.64 9.71712 186.17 9.49512C186.7 9.27311 187.305 9.16211 187.985 9.16211C188.694 9.16211 189.325 9.30176 189.876 9.58105C190.435 9.85319 190.904 10.2507 191.283 10.7734C191.67 11.2891 191.96 11.9121 192.153 12.6426C192.354 13.3659 192.454 14.1787 192.454 15.0811ZM191.165 15.3066V15.0811C191.165 14.4007 191.093 13.7705 190.95 13.1904C190.814 12.6104 190.603 12.1055 190.316 11.6758C190.037 11.2389 189.679 10.8988 189.242 10.6553C188.812 10.4118 188.3 10.29 187.706 10.29C187.09 10.29 186.564 10.3939 186.127 10.6016C185.697 10.8021 185.339 11.0706 185.053 11.4072C184.766 11.7367 184.541 12.0983 184.376 12.4922C184.211 12.8861 184.09 13.2728 184.011 13.6523V17.0791C184.147 17.6234 184.365 18.1283 184.666 18.5938C184.967 19.0521 185.368 19.4209 185.869 19.7002C186.378 19.9723 186.997 20.1084 187.728 20.1084C188.315 20.1084 188.823 19.9867 189.253 19.7432C189.683 19.4997 190.037 19.1595 190.316 18.7227C190.603 18.2858 190.814 17.7773 190.95 17.1973C191.093 16.6172 191.165 15.987 191.165 15.3066ZM194.603 15.3711V15.0166C194.603 14.1715 194.724 13.391 194.968 12.6748C195.211 11.9587 195.559 11.3392 196.01 10.8164C196.468 10.2936 197.016 9.889 197.653 9.60254C198.291 9.30892 199 9.16211 199.78 9.16211C200.568 9.16211 201.281 9.30892 201.918 9.60254C202.555 9.889 203.103 10.2936 203.562 10.8164C204.02 11.3392 204.371 11.9587 204.614 12.6748C204.858 13.391 204.979 14.1715 204.979 15.0166V15.3711C204.979 16.2161 204.858 16.9967 204.614 17.7129C204.371 18.4219 204.02 19.0378 203.562 19.5605C203.11 20.0833 202.566 20.4915 201.929 20.7852C201.291 21.0716 200.582 21.2148 199.802 21.2148C199.014 21.2148 198.301 21.0716 197.664 20.7852C197.027 20.4915 196.479 20.0833 196.021 19.5605C195.562 19.0378 195.211 18.4219 194.968 17.7129C194.724 16.9967 194.603 16.2161 194.603 15.3711ZM195.881 15.0166V15.3711C195.881 16.0085 195.967 16.6136 196.139 17.1865C196.311 17.7523 196.561 18.2572 196.891 18.7012C197.22 19.138 197.628 19.4818 198.115 19.7324C198.602 19.9831 199.164 20.1084 199.802 20.1084C200.432 20.1084 200.987 19.9831 201.467 19.7324C201.954 19.4818 202.362 19.138 202.691 18.7012C203.021 18.2572 203.268 17.7523 203.433 17.1865C203.604 16.6136 203.69 16.0085 203.69 15.3711V15.0166C203.69 14.3864 203.604 13.7884 203.433 13.2227C203.268 12.6569 203.017 12.152 202.681 11.708C202.351 11.264 201.943 10.9131 201.456 10.6553C200.969 10.3975 200.41 10.2686 199.78 10.2686C199.15 10.2686 198.591 10.3975 198.104 10.6553C197.625 10.9131 197.216 11.264 196.88 11.708C196.55 12.152 196.3 12.6569 196.128 13.2227C195.963 13.7884 195.881 14.3864 195.881 15.0166ZM208.922 11.2998V21H207.644V9.37695H208.89L208.922 11.2998ZM213.036 9.29102L213.004 10.4727C212.861 10.4512 212.721 10.4333 212.585 10.4189C212.449 10.4046 212.302 10.3975 212.145 10.3975C211.586 10.3975 211.095 10.5013 210.673 10.709C210.257 10.9095 209.907 11.1924 209.62 11.5576C209.334 11.9157 209.115 12.3382 208.965 12.8252C208.814 13.305 208.729 13.8206 208.707 14.3721L208.234 14.5547C208.234 13.7956 208.313 13.0902 208.471 12.4385C208.628 11.7868 208.868 11.2174 209.19 10.7305C209.52 10.2363 209.932 9.85319 210.426 9.58105C210.927 9.30176 211.514 9.16211 212.188 9.16211C212.352 9.16211 212.513 9.17643 212.671 9.20508C212.836 9.22656 212.957 9.25521 213.036 9.29102ZM219.986 9.37695V10.4297H214.164V9.37695H219.986ZM216.302 6.39062H217.58V18.1748C217.58 18.7119 217.652 19.1165 217.795 19.3887C217.938 19.6608 218.124 19.8434 218.354 19.9365C218.583 20.0296 218.83 20.0762 219.095 20.0762C219.288 20.0762 219.474 20.0654 219.653 20.0439C219.832 20.0153 219.993 19.9867 220.137 19.958L220.19 21.043C220.033 21.0931 219.829 21.1325 219.578 21.1611C219.327 21.1969 219.077 21.2148 218.826 21.2148C218.332 21.2148 217.895 21.1253 217.516 20.9463C217.136 20.7601 216.839 20.445 216.624 20.001C216.409 19.5498 216.302 18.9375 216.302 18.1641V6.39062ZM227.173 21.2148C226.414 21.2148 225.715 21.0752 225.078 20.7959C224.448 20.5166 223.896 20.1227 223.424 19.6143C222.958 19.1058 222.597 18.5042 222.339 17.8096C222.088 17.1077 221.963 16.3415 221.963 15.5107V15.0488C221.963 14.1536 222.095 13.3444 222.36 12.6211C222.625 11.8978 222.991 11.2783 223.456 10.7627C223.922 10.2471 224.451 9.85319 225.046 9.58105C225.647 9.30176 226.278 9.16211 226.937 9.16211C227.674 9.16211 228.329 9.2946 228.902 9.55957C229.475 9.81738 229.955 10.1862 230.342 10.666C230.736 11.1387 231.033 11.7008 231.233 12.3525C231.434 12.9971 231.534 13.7096 231.534 14.4902V15.2744H222.736V14.1787H230.256V14.0283C230.242 13.3766 230.109 12.7679 229.858 12.2021C229.615 11.6292 229.25 11.1637 228.763 10.8057C228.276 10.4476 227.667 10.2686 226.937 10.2686C226.392 10.2686 225.891 10.3831 225.433 10.6123C224.981 10.8415 224.591 11.1709 224.262 11.6006C223.939 12.0231 223.689 12.528 223.51 13.1152C223.338 13.6953 223.252 14.3398 223.252 15.0488V15.5107C223.252 16.1553 223.345 16.7568 223.531 17.3154C223.725 17.8669 223.997 18.3538 224.348 18.7764C224.706 19.1989 225.128 19.5283 225.615 19.7646C226.102 20.001 226.639 20.1191 227.227 20.1191C227.914 20.1191 228.523 19.9938 229.053 19.7432C229.583 19.4854 230.059 19.0807 230.481 18.5293L231.287 19.1523C231.036 19.5247 230.721 19.8685 230.342 20.1836C229.969 20.4987 229.522 20.7493 228.999 20.9355C228.476 21.1217 227.868 21.2148 227.173 21.2148ZM235.348 11.2998V21H234.069V9.37695H235.315L235.348 11.2998ZM239.462 9.29102L239.43 10.4727C239.286 10.4512 239.147 10.4333 239.011 10.4189C238.875 10.4046 238.728 10.3975 238.57 10.3975C238.012 10.3975 237.521 10.5013 237.099 10.709C236.683 10.9095 236.332 11.1924 236.046 11.5576C235.759 11.9157 235.541 12.3382 235.391 12.8252C235.24 13.305 235.154 13.8206 235.133 14.3721L234.66 14.5547C234.66 13.7956 234.739 13.0902 234.896 12.4385C235.054 11.7868 235.294 11.2174 235.616 10.7305C235.946 10.2363 236.357 9.85319 236.852 9.58105C237.353 9.30176 237.94 9.16211 238.613 9.16211C238.778 9.16211 238.939 9.17643 239.097 9.20508C239.261 9.22656 239.383 9.25521 239.462 9.29102Z" fill="white"/>
<defs>
<linearGradient id="paint0_linear_62_43" x1="-0.5" y1="3" x2="-0.5" y2="23" gradientUnits="userSpaceOnUse">
<stop stop-color="#EC008C"/>
<stop offset="1" stop-color="#FC6767"/>
</linearGradient>
<linearGradient id="paint1_linear_62_43" x1="9.5" y1="5" x2="9.5" y2="21" gradientUnits="userSpaceOnUse">
<stop stop-color="#E65C00"/>
<stop offset="1" stop-color="#F9D423"/>
</linearGradient>
<linearGradient id="paint2_linear_62_43" x1="19.5" y1="7" x2="19.5" y2="19" gradientUnits="userSpaceOnUse">
<stop stop-color="#00D2FF"/>
<stop offset="1" stop-color="#3A7BD5"/>
</linearGradient>
</defs>
</svg>
